<svg width="320" height="320" viewBox="0 0 320 320" fill="none" xmlns="http://www.w3.org/2000/svg">
<path d="M160 320C248.366 320 320 248.366 320 160C320 71.6344 248.366 0 160 0C71.6344 0 0 71.6344 0 160C0 248.366 71.6344 320 160 320Z" fill="#F6EFE9"/>
<mask id="mask0_2206_330" style="mask-type:luminance" maskUnits="userSpaceOnUse" x="0" y="0" width="320" height="320">
<path d="M160 320C248.366 320 320 248.366 320 160C320 71.6344 248.366 0 160 0C71.6344 0 0 71.6344 0 160C0 248.366 71.6344 320 160 320Z" fill="white"/>
</mask>
<g mask="url(#mask0_2206_330)">
<path d="M240.193 124.24C239.128 123.105 237.799 122.218 236.279 121.735C235.135 121.362 233.846 121.257 232.609 121.514C233.332 114.751 233.8 107.948 233.714 101.102C233.556 88.5163 227.59 77.3697 220.087 67.4869C209.772 53.8991 193.916 44.9664 177.157 41.7835C160.397 38.6006 142.833 40.9384 126.907 47.0549C121.582 49.0996 116.389 51.5753 111.748 54.8916C106.836 58.4006 102.637 62.7862 98.7403 67.3725C95.5009 71.1857 91.7786 75.5211 89.516 79.9945C88.6144 81.7223 87.9747 83.5255 87.4745 85.338C86.4946 88.971 86.0226 92.6525 85.7796 96.3153C85.5334 99.9811 85.5177 103.639 85.6259 107.282C85.7733 112.007 86.1214 116.713 86.609 121.398C85.673 121.332 84.7353 121.446 83.8777 121.727C82.3677 122.202 81.0397 123.072 79.9782 124.197C77.8128 126.522 77.1151 129.625 77.0586 132.485C77.0116 135.384 77.529 138.169 78.186 140.889C78.8602 143.608 79.7492 146.245 80.6665 148.849C82.5292 154.033 84.2837 159.261 86.4099 164.38C86.9414 165.658 87.4965 166.928 88.0813 168.185C88.6756 169.432 89.251 170.707 90.0554 171.908C90.8488 173.092 91.9165 174.228 93.3308 174.805C94.0254 175.092 94.7765 175.254 95.5448 175.24C96.0152 175.23 97.2366 174.733 97.6881 174.567C100.093 180.379 102.384 183.672 105.948 188.806C108.104 191.797 109.459 194.003 111.884 196.775C114.307 199.548 117.717 203.707 120.394 206.24C121.73 207.502 123.028 208.811 124.461 209.976L125.831 211.014C125.816 211.105 125.513 212.645 125.515 212.74L126.012 245.945C122.437 249.252 118.837 252.518 114.987 255.447C112.929 257.022 110.793 258.49 108.581 259.817C106.357 261.132 104.06 262.33 101.713 263.421C100.134 264.147 98.5333 264.823 96.9152 265.458C92.1925 269.085 83.4888 272.195 77.5917 272.867C79.4168 275.516 82.871 277.37 85.0034 279.842C91.8789 283.17 96.4934 289.595 103.206 294.556C104.517 295.525 108.204 297.298 109.528 298.261C121.643 307.095 149.478 306.28 157.954 306.842C158.111 306.937 158.293 306.991 158.489 306.991C158.504 306.991 158.518 306.991 158.534 306.99C158.655 306.985 159.008 306.969 159.553 306.938C160.099 306.968 160.452 306.984 160.572 306.99C160.588 306.99 160.602 306.991 160.618 306.991C160.812 306.991 160.994 306.935 161.153 306.842C169.627 306.28 196.14 303.852 208.255 295.019C209.576 294.056 212.973 293.471 214.378 292.648C232.689 281.912 226.853 282.792 234.106 279.46C234.606 279.019 234.315 277.643 234.785 277.161C236.533 275.375 238.617 273.243 239.997 270.894C235.897 270.04 231.764 269.345 227.717 268.241C226.669 267.956 225.998 267.332 225.647 266.578C223.204 265.748 220.797 264.826 218.444 263.78C216.119 262.728 213.858 261.548 211.669 260.241C209.486 258.926 207.388 257.463 205.356 255.904C201.518 252.969 197.923 249.702 194.352 246.396L194.856 212.737C194.856 212.725 194.856 212.704 194.856 212.692C194.849 212.25 194.647 211.859 194.34 211.588C195.779 210.435 197.164 209.189 198.511 207.933C201.206 205.402 203.766 202.735 206.209 199.963C208.639 197.178 210.921 194.267 213.081 191.263C216.722 186.068 219.901 180.514 222.331 174.62C222.883 174.89 223.474 175.037 224.06 175.089C224.813 175.164 225.566 175.084 226.295 174.901C227.014 174.707 227.745 174.376 228.333 173.872C228.912 173.399 229.405 172.839 229.832 172.25C230.686 171.064 231.29 169.774 231.886 168.521C232.482 167.259 233.046 165.981 233.586 164.695C235.742 159.546 237.512 154.279 239.387 149.061C240.312 146.44 241.211 143.787 241.902 141.052C242.247 139.685 242.537 138.299 242.747 136.892C242.96 135.491 243.097 134.053 243.073 132.598C243.029 129.725 242.352 126.6 240.193 124.24Z" fill="#F9BF9A"/>
<path d="M192.932 211.056C192.932 211.056 185.293 257.713 149.103 249.405C149.103 249.405 132.105 244.658 126.622 227.297C126.353 223.885 126.473 219.833 126.203 216.42C126.132 215.531 127.079 213.07 127.791 212.464C128.608 211.766 130.48 214.45 131.021 214.957C132.265 216.122 133.607 217.182 135.029 218.121C136.508 219.096 138.074 219.941 139.703 220.637C142.274 221.737 144.99 222.469 147.576 223.537C151.591 225.197 156.079 228.4 160.638 227.069C162.319 226.578 164 226.084 165.671 225.564C169.013 224.528 172.33 223.4 175.562 222.053C182.025 219.361 187.687 215.629 192.932 211.056Z" fill="#BF7D5D"/>
<path d="M155.434 163.918L153.277 129.978L145.798 124.018L122.402 117.986L107.688 120.12L130.323 112.321L144.546 118.501L152.198 124.68L156.906 129.192C156.906 129.192 156.906 158.033 155.434 163.918Z" fill="#BF7D5D"/>
<path d="M167.439 174.438C166.539 174.702 165.544 174.818 164.565 174.772C164.354 174.763 164.141 174.746 163.934 174.772C163.705 174.802 163.5 174.882 163.291 174.951C162.242 175.293 161.051 175.329 159.875 175.318C159.875 175.315 159.875 175.313 159.875 175.31C159.779 175.312 159.682 175.313 159.586 175.315C159.489 175.313 159.393 175.312 159.296 175.31C159.296 175.313 159.296 175.315 159.296 175.318C158.122 175.331 156.929 175.295 155.88 174.951C155.67 174.882 155.464 174.802 155.237 174.772C155.03 174.746 154.817 174.763 154.606 174.772C153.627 174.818 152.632 174.702 151.732 174.438C151.758 175.175 152.139 175.956 152.951 176.452C154.647 177.488 157.126 178.118 159.434 178.133V178.137C159.484 178.139 159.536 178.134 159.586 178.134C159.636 178.134 159.688 178.137 159.738 178.137V178.133C162.046 178.117 164.525 177.487 166.222 176.452C167.032 175.956 167.413 175.175 167.439 174.438Z" fill="#BF7D5D"/>
<path d="M157.466 202.156L163.56 201.926L162.468 205.433L160.57 206.468L158.156 207.503L157.466 202.156Z" fill="#BF7D5D"/>
<path d="M169.265 124.681L173.089 123.503L202.37 117.029L194.424 113.498L170.441 120.855L169.265 124.681Z" fill="#BF7D5D"/>
<path d="M180.971 162.63C180.971 163.024 180.651 163.344 180.257 163.344C179.864 163.344 179.544 163.024 179.544 162.63C179.544 162.237 179.864 161.917 180.257 161.917C180.652 161.917 180.971 162.237 180.971 162.63Z" fill="#BF7D5D"/>
<path d="M186.994 161.125C186.994 161.562 186.639 161.917 186.202 161.917C185.765 161.917 185.41 161.562 185.41 161.125C185.41 160.687 185.765 160.333 186.202 160.333C186.638 160.333 186.994 160.687 186.994 161.125Z" fill="#BF7D5D"/>
<path d="M181.129 171.108C181.129 171.458 180.845 171.742 180.496 171.742C180.146 171.742 179.862 171.458 179.862 171.108C179.862 170.758 180.146 170.475 180.496 170.475C180.845 170.475 181.129 170.758 181.129 171.108Z" fill="#BF7D5D"/>
<path d="M189.687 168.573C189.687 168.836 189.474 169.048 189.212 169.048C188.951 169.048 188.737 168.835 188.737 168.573C188.737 168.311 188.951 168.098 189.212 168.098C189.474 168.098 189.687 168.311 189.687 168.573Z" fill="#BF7D5D"/>
<path d="M204.108 164.452C204.807 164.452 205.375 163.885 205.375 163.185C205.375 162.485 204.807 161.918 204.108 161.918C203.408 161.918 202.841 162.485 202.841 163.185C202.841 163.885 203.408 164.452 204.108 164.452Z" fill="#BF7D5D"/>
<path d="M186.836 180.775C186.836 181.388 186.339 181.883 185.728 181.883C185.115 181.883 184.619 181.386 184.619 180.775C184.619 180.161 185.116 179.666 185.728 179.666C186.339 179.666 186.836 180.161 186.836 180.775Z" fill="#BF7D5D"/>
<path d="M198.007 176.972C198.576 176.972 199.037 176.511 199.037 175.942C199.037 175.373 198.576 174.912 198.007 174.912C197.438 174.912 196.977 175.373 196.977 175.942C196.977 176.511 197.438 176.972 198.007 176.972Z" fill="#BF7D5D"/>
<path d="M196.025 162.552C196.025 162.814 195.812 163.027 195.55 163.027C195.288 163.027 195.075 162.814 195.075 162.552C195.075 162.29 195.288 162.077 195.55 162.077C195.814 162.076 196.025 162.289 196.025 162.552Z" fill="#BF7D5D"/>
<path d="M141.123 162.63C141.123 163.024 141.443 163.344 141.836 163.344C142.23 163.344 142.55 163.024 142.55 162.63C142.55 162.237 142.23 161.917 141.836 161.917C141.443 161.917 141.123 162.237 141.123 162.63Z" fill="#BF7D5D"/>
<path d="M135.102 161.125C135.102 161.562 135.456 161.917 135.893 161.917C136.331 161.917 136.685 161.562 136.685 161.125C136.685 160.687 136.331 160.333 135.893 160.333C135.456 160.333 135.102 160.687 135.102 161.125Z" fill="#BF7D5D"/>
<path d="M140.964 171.108C140.964 171.458 141.248 171.742 141.597 171.742C141.947 171.742 142.231 171.458 142.231 171.108C142.231 170.758 141.947 170.475 141.597 170.475C141.248 170.475 140.964 170.758 140.964 171.108Z" fill="#BF7D5D"/>
<path d="M132.408 168.573C132.408 168.836 132.621 169.048 132.883 169.048C133.145 169.048 133.358 168.835 133.358 168.573C133.358 168.311 133.145 168.098 132.883 168.098C132.62 168.098 132.408 168.311 132.408 168.573Z" fill="#BF7D5D"/>
<path d="M116.719 163.185C116.719 163.886 117.286 164.454 117.987 164.454C118.688 164.454 119.256 163.886 119.256 163.185C119.256 162.485 118.688 161.917 117.987 161.917C117.286 161.917 116.719 162.485 116.719 163.185Z" fill="#BF7D5D"/>
<path d="M135.26 180.775C135.26 181.388 135.757 181.883 136.37 181.883C136.983 181.883 137.478 181.386 137.478 180.775C137.478 180.161 136.981 179.666 136.37 179.666C135.758 179.666 135.26 180.161 135.26 180.775Z" fill="#BF7D5D"/>
<path d="M124.088 176.972C124.657 176.972 125.118 176.511 125.118 175.942C125.118 175.373 124.657 174.912 124.088 174.912C123.519 174.912 123.058 175.373 123.058 175.942C123.058 176.511 123.519 176.972 124.088 176.972Z" fill="#BF7D5D"/>
<path d="M126.543 163.027C126.806 163.027 127.019 162.815 127.019 162.552C127.019 162.29 126.806 162.077 126.543 162.077C126.281 162.077 126.068 162.29 126.068 162.552C126.068 162.815 126.281 163.027 126.543 163.027Z" fill="#BF7D5D"/>
<path d="M296.461 292.118C287.634 279.17 249.409 274.467 249.409 274.467L250.586 270.936L240.874 267.993L239.404 271.229C214.456 303.661 164.452 305.804 158.731 305.944C153.162 305.804 104.459 303.661 79.5117 271.229L78.041 267.993L68.3307 270.936L69.5082 274.467C69.5082 274.467 30.0742 281.529 21.2467 294.477C12.4191 307.426 3.88477 334.205 3.88477 334.205H150.328H159.262H315.035C315.032 334.206 305.289 305.066 296.461 292.118Z" fill="#3A6A83"/>
<path d="M106.766 339.793C96.5865 338.937 86.3792 337.079 77.0546 332.909C71.214 330.296 65.5317 326.538 62.5871 320.857C60.6962 317.212 60.0737 313.018 60.1474 308.911C60.3324 298.575 65.1711 288.159 73.6882 282.3C85.9559 293.07 100.748 300.54 115.742 306.997C125.661 311.269 135.972 311.619 146.706 312.822C158.224 314.112 168.485 313.855 179.862 311.644C190.029 309.668 202.194 307.861 211.448 303.208C217.167 300.334 221.742 298.077 227.064 294.55C229.671 292.822 232.349 290.819 235.203 289.514C238.06 288.208 236.824 290.389 235.56 291.971C232.139 296.255 227.253 299.942 223.025 303.395C218.518 307.072 213.808 310.501 208.93 313.67C189.715 326.148 167.878 334.578 145.264 338.252C132.554 340.316 119.596 340.872 106.766 339.793Z" fill="#224656"/>
<path d="M302.326 302.276L302.665 302.505C302.801 302.571 302.938 302.641 303.069 302.723C299.933 295.847 294.626 290.057 288.312 285.907C283.962 283.048 279.142 280.946 274.142 279.522C273.153 279.24 268.748 277.604 268.264 278.769C267.939 278.664 267.615 278.569 267.295 278.498L268.247 279.144C268.396 279.884 269.758 280.952 270.182 281.521C270.857 282.429 271.456 283.392 272.052 284.353C275.539 289.974 281.256 293.779 286.866 297.284C287.931 297.948 289.002 298.612 290.149 299.118C294.054 300.84 298.601 300.661 302.481 302.423C302.43 302.375 302.378 302.325 302.326 302.276Z" fill="#224656"/>
<path d="M302.665 302.505C302.646 302.496 302.626 302.485 302.607 302.477C302.566 302.458 302.524 302.443 302.481 302.424C302.968 302.88 303.454 303.335 303.933 303.797C303.855 303.325 303.49 302.982 303.068 302.723C303.08 302.752 303.095 302.78 303.109 302.808L302.665 302.505Z" fill="#224656"/>
<path d="M18.1758 302.275L17.8372 302.504C17.7008 302.57 17.5643 302.64 17.4326 302.722C20.5685 295.846 25.8761 290.056 32.1902 285.906C36.5397 283.047 41.3596 280.945 46.3598 279.521C47.3491 279.239 51.7535 277.603 52.238 278.768C52.5626 278.663 52.8871 278.568 53.207 278.497L52.2553 279.143C52.1063 279.883 50.7437 280.951 50.3204 281.52C49.6446 282.428 49.0457 283.391 48.4498 284.352C44.9627 289.973 39.246 293.778 33.6358 297.283C32.5712 297.947 31.5003 298.611 30.3526 299.117C26.4499 300.839 21.9013 300.66 18.0222 302.422C18.0724 302.374 18.1241 302.324 18.1758 302.275Z" fill="#224656"/>
<path d="M17.8397 302.504C17.8586 302.495 17.879 302.484 17.8978 302.476C17.9386 302.457 17.9809 302.442 18.0232 302.423C17.5371 302.879 17.0511 303.334 16.5713 303.796C16.6497 303.324 17.015 302.981 17.4368 302.722C17.4243 302.751 17.4101 302.779 17.396 302.807L17.8397 302.504Z" fill="#224656"/>
<path d="M149.974 32.3831C150.544 29.7537 152.895 27.7874 155.46 26.9737C158.025 26.1599 160.788 26.3073 163.464 26.5927C168.809 27.1603 174.093 28.2374 179.274 29.6706C192.496 33.3301 205.167 39.4859 215.74 48.2884C220.925 52.605 225.416 57.5487 229.415 62.9707C233.255 68.1747 236.145 75.6491 236.313 82.1467C233.939 81.6826 231.121 78.2363 229.212 76.6495C226.629 74.503 224.028 72.3768 221.384 70.304C215.942 66.0376 210.327 61.9782 204.407 58.397C192.835 51.3961 179.912 46.1968 166.42 45.2889C148.348 44.0722 130.616 50.5792 114.48 58.8094C101.976 65.1878 89.5887 73.095 82.2382 85.0537C81.9716 80.8689 83.3953 75.6021 85.338 71.8845C91.2257 60.6141 98.8036 51.2628 107.037 41.5729C108.319 40.0645 109.651 38.5577 111.31 37.479C113.172 36.2685 115.352 35.6601 117.5 35.0941C123.282 33.5716 129.117 32.2467 134.99 31.1209C140.586 30.0469 144.884 29.161 149.974 32.3831Z" fill="#02020C"/>
<path d="M87.8345 123.919C85.8228 123.024 83.1573 123.894 81.4952 125.634C79.8097 127.348 79.0727 129.973 78.9865 132.557C78.8658 137.842 80.4855 143.176 82.1898 148.355C83.9506 153.572 85.6048 158.828 87.6071 163.924C88.6357 166.439 89.6423 169.065 91.0033 171.32C91.712 172.419 92.6104 173.391 93.7613 173.886C94.8965 174.393 96.2669 174.457 97.2672 173.803L97.7831 174.584C96.4441 175.484 94.724 175.396 93.3631 174.821C91.9488 174.242 90.881 173.105 90.0876 171.923C89.2848 170.722 88.7094 169.447 88.1135 168.201C87.5287 166.943 86.9737 165.673 86.4421 164.396C84.316 159.276 82.5614 154.049 80.6987 148.865C78.8893 143.663 77.0846 138.294 77.0908 132.5C77.1473 129.64 77.8466 126.537 80.0104 124.212C81.0719 123.088 82.3999 122.219 83.9099 121.743C85.4057 121.253 87.1461 121.249 88.6968 121.881L87.8345 123.919Z" fill="#02020C"/>
<path d="M82.3273 134.466C81.2579 132.313 81.711 129.513 83.464 127.746C84.3028 126.896 85.6058 126.167 87.0138 126.53C88.3576 126.893 89.3438 128.02 89.6637 129.356C89.7452 129.698 89.5351 130.043 89.1933 130.124C88.8515 130.206 88.5065 129.996 88.425 129.654C88.4218 129.638 88.4172 129.619 88.4156 129.605C88.2729 128.718 87.5924 127.833 86.7222 127.559C85.8708 127.256 84.825 127.677 84.0551 128.374C82.484 129.759 81.871 132.261 82.7334 134.278C82.7835 134.391 82.7317 134.522 82.6189 134.572C82.5091 134.618 82.3806 134.569 82.3273 134.466Z" fill="#02020C"/>
<path d="M91.2633 144.69C89.5903 145.495 88.6919 147.375 88.6229 149.158C88.5665 150.981 89.2751 152.745 90.2081 154.322C91.1488 155.912 92.3421 157.367 93.3863 158.982C94.4761 160.585 95.075 162.518 96.4062 163.42C96.6978 163.617 96.7731 164.012 96.5771 164.304C96.3796 164.596 95.9844 164.672 95.6928 164.475C95.6834 164.469 95.6693 164.458 95.6599 164.451C94.7756 163.779 94.2299 162.863 93.794 162.005C93.3581 161.129 92.9928 160.312 92.5161 159.519C91.5848 157.924 90.4449 156.4 89.537 154.7C88.6386 153.016 87.9565 151.102 88.1055 149.126C88.2669 147.198 89.3238 145.231 91.1551 144.446C91.2225 144.416 91.3009 144.447 91.3307 144.516C91.3574 144.584 91.3276 144.661 91.2633 144.69Z" fill="#02020C"/>
<path d="M231.5 121.88C233.061 121.243 234.813 121.257 236.318 121.751C237.834 122.239 239.17 123.117 240.23 124.259C242.395 126.614 243.067 129.743 243.109 132.62C243.085 138.448 241.246 143.847 239.423 149.082C237.549 154.3 235.777 159.567 233.623 164.716C233.083 166.002 232.519 167.278 231.923 168.542C231.327 169.797 230.724 171.085 229.869 172.271C229.443 172.86 228.949 173.418 228.37 173.894C227.784 174.397 227.051 174.728 226.332 174.922C224.888 175.275 223.282 175.256 221.918 174.392L222.434 173.611C223.447 174.245 224.858 174.278 226.065 173.947C227.299 173.636 228.218 172.727 228.983 171.64C229.734 170.559 230.296 169.312 230.863 168.053C231.426 166.797 231.959 165.525 232.469 164.244C234.499 159.117 236.166 153.829 237.939 148.574C239.659 143.358 241.314 137.995 241.219 132.667C241.146 130.062 240.431 127.41 238.741 125.671C237.078 123.909 234.394 123.015 232.367 123.918L231.5 121.88Z" fill="#02020C"/>
<path d="M237.47 134.275C238.332 132.259 237.719 129.756 236.148 128.372C235.378 127.674 234.332 127.254 233.481 127.556C232.612 127.832 231.93 128.717 231.787 129.603C231.733 129.951 231.406 130.187 231.058 130.133C230.71 130.078 230.474 129.752 230.528 129.404C230.532 129.388 230.535 129.369 230.538 129.355C230.858 128.019 231.844 126.892 233.188 126.529C234.596 126.166 235.899 126.895 236.737 127.745C238.489 129.51 238.942 132.311 237.874 134.465C237.819 134.576 237.685 134.62 237.575 134.565C237.468 134.513 237.423 134.383 237.47 134.275Z" fill="#02020C"/>
<path d="M229.045 144.447C230.876 145.231 231.933 147.199 232.094 149.127C232.243 151.102 231.561 153.016 230.663 154.702C229.755 156.401 228.615 157.925 227.684 159.52C227.207 160.313 226.842 161.13 226.406 162.007C225.97 162.864 225.424 163.782 224.54 164.453C224.261 164.667 223.861 164.616 223.646 164.338C223.431 164.061 223.483 163.659 223.761 163.444C223.769 163.438 223.784 163.427 223.794 163.421C225.123 162.521 225.722 160.586 226.814 158.984C227.858 157.369 229.051 155.914 229.992 154.324C230.926 152.748 231.633 150.982 231.577 149.159C231.508 147.376 230.61 145.495 228.937 144.692C228.869 144.66 228.841 144.58 228.872 144.515C228.902 144.449 228.979 144.419 229.045 144.447Z" fill="#02020C"/>
<path d="M159.306 176.264C159.286 176.264 159.267 176.264 159.246 176.264C156.354 176.245 153.542 174.868 151.908 172.673C151.698 172.389 151.756 171.989 152.039 171.779C152.322 171.568 152.721 171.627 152.932 171.911C154.331 173.791 156.753 174.97 159.254 174.986C159.272 174.986 159.287 174.986 159.306 174.986C161.658 174.986 164.079 174.001 165.956 172.278C166.218 172.041 166.621 172.06 166.859 172.317C167.096 172.577 167.078 172.982 166.82 173.22C164.709 175.157 161.975 176.264 159.306 176.264Z" fill="#02020C"/>
<path d="M150.751 167.3C150.337 168.227 149.844 169.149 149.498 170.072C149.111 170.997 149.42 171.846 150.067 172.575C151.298 174.016 153.374 174.524 155.218 174.317H155.226L154.638 174.985L154.625 174.727C154.608 174.375 154.879 174.075 155.23 174.058C155.583 174.041 155.883 174.312 155.9 174.665L155.912 174.922L155.914 174.959C155.93 175.292 155.676 175.573 155.343 175.59H155.323H155.313C154.2 175.631 153.092 175.452 152.063 175.046C151.038 174.644 150.086 173.981 149.429 173.075C149.109 172.623 148.824 172.136 148.709 171.546C148.588 170.947 148.744 170.35 148.959 169.864C149.409 168.898 149.956 168.045 150.448 167.134C150.494 167.051 150.597 167.019 150.68 167.065C150.76 167.107 150.791 167.204 150.755 167.284L150.751 167.3Z" fill="#02020C"/>
<path d="M131.587 153.503C136.27 153.503 140.066 147.918 140.066 141.03C140.066 134.141 136.27 128.557 131.587 128.557C126.904 128.557 123.107 134.141 123.107 141.03C123.107 147.918 126.904 153.503 131.587 153.503Z" fill="#02020C"/>
<path d="M140.713 137.801C140.713 139.915 139.396 141.627 137.77 141.627C136.144 141.627 134.827 139.915 134.827 137.801C134.827 135.688 136.144 133.976 137.77 133.976C139.395 133.976 140.713 135.688 140.713 137.801Z" fill="#F4EFE9"/>
<path d="M151.715 124.486L156.998 128.644C157.131 128.749 157.201 128.902 157.204 129.058V129.097C157.3 134.978 157.316 140.855 157.244 146.736C157.2 149.676 157.134 152.616 157.01 155.558C156.86 158.499 156.725 161.437 156.218 164.38C156.187 164.559 156.018 164.68 155.837 164.649C155.66 164.619 155.541 164.451 155.568 164.274L155.571 164.257C156.011 161.398 156.099 158.45 156.196 155.528C156.268 152.597 156.283 149.664 156.275 146.732C156.243 140.864 156.124 134.994 155.927 129.131L156.134 129.584L151.525 124.689C151.472 124.633 151.475 124.545 151.532 124.492C151.583 124.445 151.662 124.443 151.715 124.486Z" fill="#02020C"/>
<path d="M122.613 153.747C125.335 153.347 128.043 153.253 130.763 153.214C133.481 153.186 136.198 153.256 138.91 153.401C139.262 153.42 139.531 153.719 139.512 154.07C139.494 154.421 139.194 154.691 138.843 154.672C138.835 154.672 138.824 154.671 138.816 154.671C136.135 154.414 133.446 154.23 130.754 154.144C128.07 154.066 125.352 154.051 122.706 154.326L122.685 154.327C122.524 154.345 122.381 154.227 122.364 154.066C122.348 153.91 122.459 153.771 122.613 153.747Z" fill="#02020C"/>
<path d="M169.414 167.134C169.907 168.045 170.454 168.898 170.904 169.864C171.119 170.35 171.275 170.947 171.153 171.546C171.039 172.136 170.753 172.623 170.433 173.075C169.776 173.981 168.825 174.644 167.799 175.046C166.771 175.45 165.662 175.631 164.549 175.59H164.539C164.207 175.585 163.942 175.311 163.948 174.98V174.963L163.95 174.922L163.962 174.665C163.98 174.312 164.279 174.041 164.632 174.058C164.985 174.075 165.256 174.375 165.239 174.727L165.226 174.985L164.637 174.317H164.645C166.488 174.524 168.563 174.016 169.794 172.575C170.443 171.845 170.752 170.997 170.363 170.072C170.016 169.149 169.524 168.228 169.11 167.3L169.104 167.284C169.065 167.198 169.104 167.096 169.19 167.059C169.276 167.022 169.372 167.055 169.414 167.134Z" fill="#02020C"/>
<path d="M195.884 141.362C195.884 148.25 192.088 153.835 187.404 153.835C182.721 153.835 178.925 148.25 178.925 141.362C178.925 134.474 182.721 128.889 187.404 128.889C192.086 128.889 195.884 134.474 195.884 141.362Z" fill="#02020C"/>
<path d="M195.137 141.293C196.763 141.293 198.08 139.58 198.08 137.467C198.08 135.354 196.763 133.642 195.137 133.642C193.512 133.642 192.194 135.354 192.194 137.467C192.194 139.58 193.512 141.293 195.137 141.293Z" fill="#F4EFE9"/>
<path d="M178.428 153.747C181.149 153.347 183.857 153.253 186.578 153.214C189.295 153.186 192.012 153.256 194.725 153.401C195.076 153.42 195.346 153.719 195.327 154.07C195.308 154.421 195.009 154.691 194.657 154.672C194.65 154.672 194.639 154.671 194.631 154.671C191.95 154.414 189.261 154.23 186.568 154.144C183.884 154.066 181.167 154.051 178.52 154.326L178.5 154.327C178.338 154.345 178.195 154.227 178.178 154.066C178.163 153.91 178.274 153.771 178.428 153.747Z" fill="#02020C"/>
<path d="M150.68 190.839C153.688 191.246 156.78 191.472 159.834 191.477C162.884 191.464 165.971 191.254 168.823 190.373L168.502 190.621L171.13 187.414C171.21 187.317 171.354 187.303 171.451 187.383C171.537 187.453 171.558 187.573 171.508 187.667L169.557 191.325L169.383 191.651C169.361 191.692 169.311 191.707 169.27 191.685C169.229 191.663 169.214 191.613 169.236 191.572C166.17 192.614 162.994 192.904 159.856 193.01C156.706 193.093 153.589 192.957 150.437 192.621C149.944 192.568 149.586 192.126 149.638 191.63C149.691 191.137 150.133 190.779 150.629 190.831C150.635 190.831 150.643 190.832 150.651 190.834L150.68 190.839Z" fill="#02020C"/>
<path d="M143.149 233.047C144.571 242.014 147.533 250.741 151.872 258.728C151.959 258.891 151.9 259.095 151.737 259.183C151.575 259.271 151.373 259.211 151.284 259.05C146.856 251.023 143.806 242.235 142.31 233.182C142.273 232.95 142.429 232.732 142.66 232.692C142.892 232.653 143.11 232.812 143.149 233.042V233.047Z" fill="#02020C"/>
<path d="M194.891 212.755L194.212 258.193C194.205 258.646 193.832 259.008 193.379 259C192.934 258.994 192.578 258.633 192.572 258.193L191.893 212.755C191.88 211.927 192.542 211.245 193.37 211.233C194.198 211.22 194.88 211.882 194.892 212.71C194.891 212.722 194.891 212.743 194.891 212.755Z" fill="#02020C"/>
<path d="M238.587 272.272C230.004 270.166 221.379 267.591 213.536 263.248C205.651 258.927 199.089 252.788 192.726 246.712C192.469 246.468 192.46 246.06 192.706 245.803C192.949 245.549 193.352 245.538 193.609 245.775C200.058 251.75 206.633 257.69 214.347 261.755C222.041 265.862 230.53 268.262 239.074 270.218C239.641 270.346 239.997 270.911 239.868 271.48C239.74 272.047 239.175 272.403 238.606 272.275C238.602 272.276 238.591 272.273 238.587 272.272Z" fill="#02020C"/>
<path d="M177.935 233.184C176.439 242.237 173.388 251.025 168.962 259.052C168.872 259.213 168.668 259.273 168.507 259.183C168.345 259.094 168.286 258.892 168.374 258.73C172.712 250.743 175.674 242.016 177.096 233.049C177.132 232.817 177.35 232.658 177.582 232.696C177.814 232.732 177.973 232.952 177.935 233.184Z" fill="#02020C"/>
<path d="M151.913 282.684C154.169 284.205 156.982 284.882 159.735 284.834C162.488 284.766 165.27 283.973 167.462 282.362C167.688 282.196 168.006 282.245 168.172 282.471C168.338 282.696 168.29 283.015 168.064 283.181C168.025 283.209 167.976 283.234 167.932 283.25C165.235 284.224 162.506 284.786 159.737 284.834C156.968 284.899 154.217 284.451 151.481 283.59C151.213 283.509 151.063 283.225 151.144 282.957C151.226 282.689 151.51 282.538 151.779 282.62C151.825 282.634 151.873 282.657 151.913 282.684Z" fill="#02020C"/>
<path d="M171.483 279.237C174.536 278.872 177.595 278.607 180.656 278.343C183.717 278.113 186.777 277.881 189.841 277.696C192.906 277.536 195.969 277.323 199.035 277.208C202.101 277.072 205.169 276.956 208.239 276.91C208.517 276.906 208.746 277.128 208.749 277.406C208.754 277.669 208.551 277.889 208.294 277.914C205.237 278.204 202.174 278.422 199.112 278.621C196.052 278.842 192.985 278.963 189.919 279.14C186.854 279.289 183.786 279.392 180.719 279.497C177.649 279.569 174.58 279.64 171.504 279.609C171.402 279.607 171.319 279.524 171.32 279.421C171.32 279.325 171.392 279.248 171.483 279.237Z" fill="#02020C"/>
<path d="M149.957 279.607C147.193 279.639 144.435 279.568 141.676 279.496C138.92 279.391 136.164 279.287 133.41 279.138C130.659 278.963 127.904 278.841 125.155 278.619C122.405 278.42 119.656 278.201 116.911 277.911C116.635 277.881 116.434 277.635 116.464 277.357C116.492 277.097 116.715 276.904 116.972 276.907C119.731 276.953 122.486 277.069 125.241 277.205C127.996 277.32 130.746 277.533 133.5 277.693C136.251 277.879 139 278.111 141.747 278.342C144.494 278.605 147.24 278.87 149.98 279.236C150.082 279.25 150.154 279.342 150.14 279.444C150.128 279.54 150.049 279.607 149.957 279.607Z" fill="#02020C"/>
<path d="M159.555 314.514C158.973 314.514 158.5 314.042 158.5 313.459C158.5 312.877 158.972 312.403 159.555 312.403C177.084 312.403 193.158 309.904 207.327 304.974C220.824 300.277 231.754 293.977 239.809 286.248C240.21 285.864 240.627 285.472 241.054 285.074C242.957 283.294 244.927 281.457 246.176 279.462C247.221 277.799 248.127 275.908 249.005 274.078C249.333 273.394 249.66 272.712 249.993 272.041L241.491 269.647C237.024 275.762 232.223 280.676 227.215 284.259C225.056 285.803 222.745 287.144 220.51 288.439C219.325 289.127 218.141 289.823 216.957 290.521C212.014 293.433 206.901 296.445 201.557 298.77C196.888 300.801 191.684 302.342 184.681 303.764C176.084 305.512 167.299 306.602 158.572 307.003C158.029 307.032 157.498 306.582 157.471 305.998C157.443 305.417 157.894 304.923 158.476 304.898C167.095 304.501 175.771 303.424 184.263 301.699C191.115 300.305 196.19 298.806 200.718 296.837C205.943 294.563 210.999 291.586 215.888 288.705C217.077 288.004 218.265 287.305 219.454 286.615C221.646 285.344 223.911 284.03 225.989 282.543C230.972 278.978 235.759 274.023 240.213 267.817C240.472 267.458 240.92 267.3 241.356 267.417L251.804 270.36C252.109 270.448 252.359 270.668 252.486 270.958C252.611 271.251 252.597 271.583 252.451 271.866C251.918 272.88 251.415 273.932 250.907 274.99C250.004 276.874 249.069 278.818 247.962 280.582C246.567 282.808 244.404 284.831 242.495 286.614C242.076 287.007 241.664 287.391 241.27 287.769C232.994 295.709 221.807 302.169 208.02 306.966C193.626 311.975 177.321 314.514 159.555 314.514Z" fill="#02020C"/>
<path d="M315.448 333.392C315.08 333.392 314.722 333.199 314.529 332.856C311.558 327.591 309.437 321.857 307.386 316.313C306.395 313.633 305.371 310.864 304.267 308.194C300.085 298.08 295.331 291.473 289.306 287.4C286.189 285.292 282.723 283.884 279.746 282.784C269.962 279.169 260.167 277.034 250.156 274.983C249.583 274.867 249.218 274.309 249.334 273.74C249.45 273.167 250.005 272.802 250.577 272.918C260.672 274.983 270.553 277.14 280.477 280.805C283.572 281.948 287.183 283.419 290.488 285.65C296.873 289.966 301.871 296.873 306.218 307.386C307.336 310.092 308.367 312.882 309.366 315.579C311.389 321.045 313.48 326.699 316.367 331.818C316.654 332.326 316.475 332.969 315.967 333.254C315.803 333.348 315.624 333.392 315.448 333.392Z" fill="#02020C"/>
<path d="M128.108 212.755L127.429 258.193C127.422 258.646 127.049 259.008 126.596 259C126.151 258.994 125.795 258.633 125.788 258.193L125.11 212.755C125.097 211.927 125.759 211.245 126.587 211.233C127.414 211.22 128.096 211.882 128.109 212.71C128.109 212.722 128.109 212.743 128.108 212.755Z" fill="#02020C"/>
<path d="M80.9286 270.219C89.4708 268.263 97.9612 265.863 105.655 261.756C113.368 257.691 119.944 251.75 126.393 245.776C126.653 245.534 127.061 245.55 127.302 245.81C127.542 246.069 127.528 246.47 127.274 246.713C120.913 252.789 114.349 258.929 106.464 263.249C98.6213 267.592 89.996 270.165 81.4131 272.273C80.8471 272.412 80.2763 272.066 80.1383 271.5C79.9988 270.934 80.3453 270.363 80.9113 270.223C80.9113 270.223 80.9239 270.22 80.9286 270.219Z" fill="#02020C"/>
<path d="M160.446 314.515C142.678 314.515 126.372 311.976 111.982 306.97C98.1932 302.172 87.0075 295.713 78.7302 287.773C78.3351 287.394 77.9212 287.006 77.4994 286.613C75.5928 284.83 73.4321 282.811 72.0366 280.586C70.9281 278.82 69.9936 276.871 69.0889 274.987C68.5824 273.931 68.0791 272.881 67.5476 271.869C67.3986 271.587 67.3877 271.255 67.5131 270.962C67.6401 270.67 67.8894 270.449 68.1952 270.364L78.6424 267.421C79.0783 267.304 79.5268 267.462 79.7855 267.821C84.2416 274.029 89.027 278.982 94.0083 282.547C96.0874 284.035 98.3531 285.349 100.545 286.621C101.735 287.311 102.924 288.011 104.114 288.711C109.001 291.591 114.056 294.569 119.281 296.842C123.809 298.812 128.884 300.312 135.736 301.704C144.23 303.429 152.905 304.506 161.523 304.903C162.104 304.93 162.556 305.422 162.528 306.004C162.501 306.589 161.976 307.04 161.427 307.009C152.7 306.607 143.916 305.518 135.318 303.769C128.315 302.347 123.111 300.806 118.44 298.775C113.098 296.452 107.987 293.44 103.044 290.528C101.859 289.829 100.675 289.131 99.4883 288.444C97.254 287.148 94.9429 285.809 92.7822 284.264C87.7758 280.681 82.9747 275.767 78.5076 269.652L70.0046 272.047C70.337 272.716 70.6631 273.395 70.9892 274.076C71.8673 275.907 72.7767 277.801 73.821 279.466C75.0706 281.457 77.0353 283.295 78.9372 285.073C79.3652 285.473 79.7855 285.868 80.1884 286.252C88.2446 293.981 99.1732 300.281 112.672 304.978C126.84 309.908 142.913 312.407 160.444 312.407C161.026 312.407 161.499 312.879 161.499 313.462C161.499 314.043 161.027 314.515 160.446 314.515Z" fill="#02020C"/>
<path d="M4.55061 333.392C4.37657 333.392 4.19783 333.348 4.03476 333.255C3.52675 332.97 3.34799 332.327 3.63493 331.819C6.52153 326.7 8.61317 321.046 10.6358 315.578C11.633 312.881 12.6647 310.092 13.7843 307.387C18.1322 296.872 23.1308 289.966 29.514 285.651C32.8145 283.419 36.4271 281.95 39.5254 280.806C49.4473 277.141 59.3301 274.984 69.4246 272.919C69.9969 272.803 70.552 273.17 70.668 273.74C70.784 274.311 70.4171 274.868 69.8464 274.984C59.835 277.033 50.04 279.17 40.256 282.784C37.2769 283.885 33.8102 285.293 30.6962 287.4C24.6706 291.472 19.9181 298.08 15.7348 308.195C14.631 310.863 13.6071 313.634 12.6146 316.313C10.5637 321.858 8.44229 327.592 5.47259 332.857C5.27659 333.199 4.91908 333.392 4.55061 333.392Z" fill="#02020C"/>
<path d="M213.113 122.525C209.844 120.43 206.714 118.735 203.442 117.531C202.667 117.24 201.709 116.898 200.96 116.65C200.185 116.409 199.552 116.272 199.071 116.286C198.544 116.285 198.428 116.34 197.318 116.703C196.427 117.003 195.543 117.257 194.629 117.533C190.985 118.629 187.281 119.527 183.554 120.346L177.964 121.575C176.095 121.968 174.247 122.425 172.34 122.693L173.195 122.106C172.072 123.171 170.905 124.201 169.527 125.07C169.237 125.253 168.853 125.166 168.67 124.875C168.569 124.716 168.55 124.526 168.602 124.36C169.087 122.804 169.784 121.412 170.524 120.054C170.617 119.885 170.757 119.759 170.92 119.682L171.379 119.466C173.121 118.648 174.918 118.017 176.697 117.324L182.049 115.294C185.616 113.939 189.208 112.666 192.858 111.589C193.768 111.322 194.707 111.027 195.638 110.783C196.135 110.656 196.455 110.532 197.289 110.372C198.018 110.243 198.77 110.218 199.475 110.281C200.897 110.422 202.106 110.856 203.092 111.325C204.105 111.797 204.877 112.25 205.81 112.798C209.352 114.985 212.339 118.074 214.005 121.772C214.143 122.078 214.007 122.437 213.701 122.575C213.508 122.661 213.293 122.64 213.127 122.535L213.113 122.525Z" fill="#02020C"/>
<path d="M107.296 121.772C108.961 118.071 111.95 114.984 115.492 112.797C116.425 112.25 117.198 111.797 118.209 111.325C119.195 110.856 120.404 110.421 121.826 110.28C122.533 110.218 123.283 110.241 124.012 110.371C124.846 110.533 125.166 110.655 125.663 110.782C126.594 111.028 127.534 111.323 128.443 111.588C132.093 112.665 135.684 113.938 139.252 115.293L144.604 117.324C146.383 118.017 148.18 118.647 149.922 119.465L150.382 119.682C150.556 119.763 150.691 119.897 150.777 120.053C151.519 121.411 152.215 122.804 152.699 124.359C152.801 124.687 152.619 125.035 152.292 125.137C152.111 125.193 151.923 125.162 151.776 125.069C150.397 124.202 149.229 123.172 148.108 122.106L148.963 122.692C147.058 122.424 145.207 121.968 143.338 121.574L137.749 120.345C134.022 119.527 130.318 118.628 126.674 117.532C125.76 117.256 124.876 117.002 123.985 116.703C122.875 116.339 122.758 116.284 122.231 116.286C121.749 116.272 121.116 116.408 120.341 116.649C119.592 116.897 118.634 117.239 117.859 117.531C114.587 118.735 111.457 120.43 108.188 122.524L108.179 122.531C107.897 122.711 107.522 122.63 107.34 122.347C107.224 122.17 107.216 121.951 107.296 121.772Z" fill="#02020C"/>
<path d="M241.068 268.435L250.613 270.514C250.613 270.514 244.99 296.751 196.499 308.23C196.499 308.23 226.485 296.986 233.512 284.336C233.512 284.336 179.867 328.845 102.093 293.237C102.093 293.237 87.4986 289.195 75.7656 268.338L78.9282 268.435C78.9282 268.435 101.055 291.802 109.658 293.367C109.658 293.367 146.913 313.409 184.47 302.736C184.47 302.736 220.221 295.647 241.068 268.435Z" fill="#02020C"/>
<path d="M277.395 333.429C277.183 333.429 277.001 333.274 276.973 333.058C274.848 316.433 279.516 299.298 289.778 286.049C289.924 285.864 290.192 285.833 290.374 285.974C290.561 286.118 290.594 286.384 290.449 286.569C280.324 299.642 275.72 316.547 277.816 332.949C277.845 333.182 277.682 333.395 277.448 333.425C277.429 333.429 277.412 333.429 277.395 333.429Z" fill="#02020C"/>
<path d="M43.8012 333.428C43.784 333.428 43.7667 333.427 43.7479 333.425C43.5159 333.394 43.3512 333.182 43.3794 332.95C45.4758 316.548 40.8723 299.642 30.7465 286.57C30.6022 286.384 30.6367 286.119 30.8218 285.974C31.0068 285.832 31.2733 285.865 31.4175 286.05C41.6798 299.299 46.3476 316.433 44.223 333.058C44.1948 333.273 44.0113 333.428 43.8012 333.428Z" fill="#02020C"/>
<path d="M230.816 92.8445C230.518 90.4377 230.145 88.067 229.49 85.8154C228.849 83.5372 227.883 81.5255 226.451 79.6659C226.404 79.6047 226.365 79.542 226.334 79.4746L226.313 79.4307C222.839 72.1303 217.914 65.5261 211.924 60.0743C205.895 54.6618 198.959 50.2699 191.508 47.0525C176.543 40.7039 159.671 39.172 143.71 42.1339C127.741 45.0597 112.638 53.1471 101.898 65.3254C101.227 66.0843 100.628 66.9028 99.9897 67.6868C99.3829 68.4958 98.6788 69.2359 98.1504 70.1014C97.0513 71.7995 95.8236 73.4207 94.9126 75.2302L93.445 77.8863L92.2064 80.6741C91.3487 82.5478 90.5678 84.3525 90.0755 86.2842C87.7016 94.091 87.1278 102.309 88.426 110.316L88.4401 110.448C88.967 120.655 90.2574 130.842 91.9194 140.962C93.6018 151.077 95.6151 161.165 98.0078 171.123L97.9811 171.037C100.374 177.799 103.852 184.164 107.922 190.105C112.057 196.009 116.771 201.53 121.98 206.53C123.285 207.78 124.605 209 125.997 210.146L128.076 211.872L130.237 213.483C133.166 215.566 136.27 217.417 139.472 219.085C145.885 222.398 152.663 225.071 159.608 227.066L159.622 227.071H159.293C166.314 225.096 173.182 222.509 179.7 219.261C182.953 217.627 186.114 215.814 189.098 213.754L191.288 212.147C192.011 211.601 192.695 211.001 193.4 210.43C194.815 209.281 196.149 208.062 197.474 206.809C202.75 201.79 207.528 196.238 211.711 190.29C215.841 184.309 219.336 177.878 221.75 171.055L221.725 171.137C224.783 158.28 227.365 145.272 229.151 132.181C230.039 125.637 230.735 119.058 231.157 112.478C231.56 105.912 231.614 99.3233 230.816 92.8445ZM233.267 92.5513C234.043 99.2512 233.932 105.984 233.471 112.635C232.996 119.288 232.248 125.899 231.306 132.487C229.41 145.664 226.726 158.683 223.554 171.603L223.529 171.684C220.993 178.688 217.368 185.231 213.12 191.287C208.818 197.311 203.937 202.897 198.545 207.954C197.195 209.21 195.809 210.458 194.366 211.612C193.642 212.189 192.941 212.796 192.196 213.349L189.937 214.982C186.865 217.069 183.634 218.891 180.32 220.524C173.68 223.773 166.734 226.33 159.617 228.276C159.506 228.308 159.391 228.305 159.288 228.276L159.274 228.272C152.21 226.315 145.354 223.687 138.801 220.385C135.534 218.721 132.352 216.869 129.329 214.762L127.096 213.131L124.958 211.393C123.528 210.239 122.162 209 120.826 207.746C115.484 202.716 110.647 197.165 106.374 191.186C102.174 185.164 98.5848 178.663 96.076 171.705L96.0494 171.617C93.5783 161.585 91.5086 151.494 89.7588 141.324C88.0325 131.154 86.6746 120.908 86.0819 110.566L86.0961 110.697C84.6865 102.379 85.265 93.6677 87.664 85.6335C87.9384 84.6018 88.2629 83.5685 88.6487 82.5572C89.0438 81.5239 89.4687 80.6318 89.892 79.6455L91.159 76.7589L92.6736 73.9758C93.6191 72.0802 94.8829 70.3805 96.0243 68.6024C96.5731 67.6962 97.2975 66.92 97.9262 66.0733C98.5863 65.2517 99.2088 64.3956 99.9034 63.6022C111.019 50.8548 126.637 42.4051 143.155 39.2786C159.667 36.0596 177.139 37.7546 192.654 44.3682C200.378 47.7267 207.598 52.2973 213.818 58.0094C220.012 63.7418 225.103 70.6815 228.67 78.352L228.532 78.1183C229.295 79.1563 229.998 80.2633 230.573 81.4596C231.142 82.6654 231.571 83.8774 231.92 85.1161C232.616 87.5888 232.982 90.0896 233.267 92.5513Z" fill="#02020C"/>
<path d="M158.741 31.0938V74.2626C164.18 75.023 172.157 73.8471 177.637 73.4896C191.261 72.6021 205.325 77.0049 215.429 86.19C215.907 86.6243 216.396 87.1025 216.567 87.725C216.752 88.4039 216.525 89.1173 216.298 89.7837C215.854 91.0883 214.988 92.6813 214.85 94.047C214.668 95.8438 214.855 95.4299 216.37 96.5196C218.571 98.1048 220.249 100.244 221.445 102.669C223.041 105.904 223.027 109.75 223.421 113.309C223.896 117.61 224.255 121.925 224.496 126.246C224.981 134.889 224.995 143.557 224.54 152.201C224.418 154.535 224.095 157.135 224.688 159.413C227.394 158.882 226.459 155.884 226.666 153.94C227.027 150.558 227.626 147.183 228.106 143.817C229.087 136.932 230.074 130.047 231.046 123.161C232.97 109.535 234.84 95.9019 236.527 82.245C236.741 80.5171 236.954 78.7642 236.709 77.0394C236.413 74.9446 235.46 73.0019 234.426 71.1565C227.425 58.6489 216.178 48.7959 203.423 42.256C190.673 35.7176 173.021 32.3481 158.741 31.0938Z" fill="#02020C"/>
<path d="M242.203 57.1839C239.88 50.9105 236.424 45.0966 232.413 39.742C228.177 34.0849 223.258 28.862 217.389 24.9233C210.576 20.3527 202.685 17.6433 194.732 15.6348C181.318 12.248 167.434 10.7224 153.605 11.1191C141.187 11.475 128.524 13.4726 117.647 19.4747C106.77 25.4768 97.8798 36.0009 96.2053 48.3109C95.8039 51.2602 95.9168 54.2707 96.4467 57.2121C94.4037 59.2991 92.4893 61.5052 90.7285 63.8273L90.4728 63.52C82.3916 73.776 77.727 86.6786 77.3789 99.7303C78.7775 97.3626 80.6355 95.2679 82.8197 93.5949C81.581 95.7508 81.3223 98.3254 81.2862 100.812C81.2078 106.25 82.0624 111.653 82.9154 117.025C84.0364 115.269 85.1591 113.513 86.2802 111.756C85.9776 117.997 87.7619 124.129 89.5274 130.122C89.5901 128.872 89.6826 127.626 89.761 126.378C90.5842 132.19 91.4136 138.002 92.2431 143.813C92.7228 147.18 93.3218 150.555 93.6824 153.936C93.8894 155.88 92.9549 158.878 95.6612 159.41C96.2539 157.131 95.9309 154.532 95.8086 152.197C95.3539 143.553 95.3695 134.885 95.8525 126.243C96.0939 121.921 96.453 117.608 96.9281 113.306C97.3217 109.746 97.3091 105.9 98.9037 102.665C100.1 100.24 101.778 98.1012 103.979 96.516C105.494 95.4262 105.68 95.8402 105.499 94.0433C105.361 92.6776 104.493 91.0861 104.051 89.78C103.826 89.1152 103.597 88.4002 103.782 87.7213C103.951 87.0973 104.442 86.6206 104.92 86.1863C109.24 82.2586 114.288 79.2136 119.714 77.0749C122.012 76.8554 124.305 76.5356 126.583 76.131C128.306 76.1828 130.087 76.0542 131.312 76.2063C135.481 76.7284 139.581 77.8166 143.454 79.4472C148.324 81.4997 153.014 84.4349 158.288 84.772C158.307 84.7736 158.326 84.772 158.343 84.7736C162.533 86.7163 167.349 87.3889 171.867 86.5548C174.949 85.9856 177.864 84.772 180.685 83.5976C182.628 82.7885 184.638 81.9528 186.664 81.3445C191.893 79.7828 197.446 79.731 202.525 81.1124C209.146 87.6366 214.306 95.9139 217.609 104.608C224.145 121.82 224.678 140.638 225.135 159.043C229.409 142.013 236.684 125.874 241.435 108.972C246.188 92.0708 248.3 73.649 242.203 57.1839ZM186.298 80.1277C184.208 80.7533 182.168 81.6032 180.194 82.4248C177.436 83.5725 174.584 84.761 171.636 85.3035C168.311 85.9166 164.825 85.6548 161.576 84.6513C167.105 83.9379 172.27 80.7941 177.402 78.3215C182.09 76.0636 187.026 74.3295 192.087 73.1237C195.156 74.8798 198.023 77.0012 200.686 79.3955C195.993 78.4986 191.019 78.7181 186.298 80.1277Z" fill="#02020C"/>
<path d="M227.081 179.629C229.292 179.629 231.084 177.837 231.084 175.626C231.084 173.415 229.292 171.623 227.081 171.623C224.87 171.623 223.078 173.415 223.078 175.626C223.078 177.837 224.87 179.629 227.081 179.629Z" fill="#02020C"/>
<path d="M96.9226 175.625C96.9226 177.836 95.1304 179.628 92.918 179.628C90.7072 179.628 88.915 177.836 88.915 175.625C88.915 173.414 90.7072 171.622 92.918 171.622C95.1304 171.621 96.9226 173.414 96.9226 175.625Z" fill="#02020C"/>
</g>
</svg>
