<svg width="646" height="193" viewBox="0 0 646 193" fill="none" xmlns="http://www.w3.org/2000/svg">
<path d="M250.808 141.08V155H242.456C236.504 155 231.864 153.56 228.536 150.68C225.208 147.736 223.544 142.968 223.544 136.376V115.064H217.016V101.432H223.544V88.376H239.96V101.432H250.712V115.064H239.96V136.568C239.96 138.168 240.344 139.32 241.112 140.024C241.88 140.728 243.16 141.08 244.952 141.08H250.808ZM284.048 139.64L295.664 101.432H313.136L294.128 155H273.872L254.864 101.432H272.432L284.048 139.64ZM316.782 128.12C316.782 122.616 317.806 117.784 319.854 113.624C321.966 109.464 324.814 106.264 328.398 104.024C331.982 101.784 335.982 100.664 340.398 100.664C344.174 100.664 347.47 101.432 350.286 102.968C353.166 104.504 355.374 106.52 356.91 109.016V101.432H373.326V155H356.91V147.416C355.31 149.912 353.07 151.928 350.19 153.464C347.374 155 344.078 155.768 340.302 155.768C335.95 155.768 331.982 154.648 328.398 152.408C324.814 150.104 321.966 146.872 319.854 142.712C317.806 138.488 316.782 133.624 316.782 128.12ZM356.91 128.216C356.91 124.12 355.758 120.888 353.454 118.52C351.214 116.152 348.462 114.968 345.198 114.968C341.934 114.968 339.15 116.152 336.846 118.52C334.606 120.824 333.486 124.024 333.486 128.12C333.486 132.216 334.606 135.48 336.846 137.912C339.15 140.28 341.934 141.464 345.198 141.464C348.462 141.464 351.214 140.28 353.454 137.912C355.758 135.544 356.91 132.312 356.91 128.216ZM381.938 128.12C381.938 122.616 382.962 117.784 385.01 113.624C387.122 109.464 389.97 106.264 393.554 104.024C397.138 101.784 401.138 100.664 405.554 100.664C409.074 100.664 412.274 101.4 415.154 102.872C418.098 104.344 420.402 106.328 422.066 108.824V83.96H438.482V155H422.066V147.32C420.53 149.88 418.322 151.928 415.442 153.464C412.626 155 409.33 155.768 405.554 155.768C401.138 155.768 397.138 154.648 393.554 152.408C389.97 150.104 387.122 146.872 385.01 142.712C382.962 138.488 381.938 133.624 381.938 128.12ZM422.066 128.216C422.066 124.12 420.914 120.888 418.61 118.52C416.37 116.152 413.618 114.968 410.354 114.968C407.09 114.968 404.306 116.152 402.002 118.52C399.762 120.824 398.642 124.024 398.642 128.12C398.642 132.216 399.762 135.48 402.002 137.912C404.306 140.28 407.09 141.464 410.354 141.464C413.618 141.464 416.37 140.28 418.61 137.912C420.914 135.544 422.066 132.312 422.066 128.216ZM447.094 128.216C447.094 122.648 448.214 117.784 450.454 113.624C452.758 109.464 455.926 106.264 459.958 104.024C464.054 101.784 468.726 100.664 473.974 100.664C480.694 100.664 486.294 102.424 490.774 105.944C495.318 109.464 498.294 114.424 499.702 120.824H482.23C480.758 116.728 477.91 114.68 473.686 114.68C470.678 114.68 468.278 115.864 466.486 118.232C464.694 120.536 463.798 123.864 463.798 128.216C463.798 132.568 464.694 135.928 466.486 138.296C468.278 140.6 470.678 141.752 473.686 141.752C477.91 141.752 480.758 139.704 482.23 135.608H499.702C498.294 141.88 495.318 146.808 490.774 150.392C486.23 153.976 480.63 155.768 473.974 155.768C468.726 155.768 464.054 154.648 459.958 152.408C455.926 150.168 452.758 146.968 450.454 142.808C448.214 138.648 447.094 133.784 447.094 128.216ZM532.867 155.768C527.619 155.768 522.883 154.648 518.659 152.408C514.499 150.168 511.203 146.968 508.771 142.808C506.403 138.648 505.219 133.784 505.219 128.216C505.219 122.712 506.435 117.88 508.867 113.72C511.299 109.496 514.627 106.264 518.851 104.024C523.075 101.784 527.811 100.664 533.059 100.664C538.307 100.664 543.043 101.784 547.267 104.024C551.491 106.264 554.819 109.496 557.251 113.72C559.683 117.88 560.899 122.712 560.899 128.216C560.899 133.72 559.651 138.584 557.155 142.808C554.723 146.968 551.363 150.168 547.075 152.408C542.851 154.648 538.115 155.768 532.867 155.768ZM532.867 141.56C536.003 141.56 538.659 140.408 540.835 138.104C543.075 135.8 544.195 132.504 544.195 128.216C544.195 123.928 543.107 120.632 540.931 118.328C538.819 116.024 536.195 114.872 533.059 114.872C529.859 114.872 527.203 116.024 525.091 118.328C522.979 120.568 521.923 123.864 521.923 128.216C521.923 132.504 522.947 135.8 524.995 138.104C527.107 140.408 529.731 141.56 532.867 141.56ZM586.024 109.016C587.624 106.52 589.832 104.504 592.648 102.968C595.464 101.432 598.76 100.664 602.536 100.664C606.952 100.664 610.952 101.784 614.536 104.024C618.12 106.264 620.936 109.464 622.984 113.624C625.096 117.784 626.152 122.616 626.152 128.12C626.152 133.624 625.096 138.488 622.984 142.712C620.936 146.872 618.12 150.104 614.536 152.408C610.952 154.648 606.952 155.768 602.536 155.768C598.824 155.768 595.528 155 592.648 153.464C589.832 151.928 587.624 149.944 586.024 147.512V180.536H569.608V101.432H586.024V109.016ZM609.448 128.12C609.448 124.024 608.296 120.824 605.992 118.52C603.752 116.152 600.968 114.968 597.64 114.968C594.376 114.968 591.592 116.152 589.288 118.52C587.048 120.888 585.928 124.12 585.928 128.216C585.928 132.312 587.048 135.544 589.288 137.912C591.592 140.28 594.376 141.464 597.64 141.464C600.904 141.464 603.688 140.28 605.992 137.912C608.296 135.48 609.448 132.216 609.448 128.12Z" fill="#077C76"/>
<mask id="path-2-inside-1_1160_55" fill="white">
<path fill-rule="evenodd" clip-rule="evenodd" d="M75 28C67.268 28 61 34.268 61 42V68H37C32.5817 68 29 71.5817 29 76V114C29 118.418 32.5817 122 37 122H62V177C62 182.523 66.4772 187 72 187H186C191.523 187 196 182.523 196 177V63C196 57.4772 191.523 53 186 53H115V42C115 34.268 108.732 28 101 28H75Z"/>
</mask>
<path fill-rule="evenodd" clip-rule="evenodd" d="M75 28C67.268 28 61 34.268 61 42V68H37C32.5817 68 29 71.5817 29 76V114C29 118.418 32.5817 122 37 122H62V177C62 182.523 66.4772 187 72 187H186C191.523 187 196 182.523 196 177V63C196 57.4772 191.523 53 186 53H115V42C115 34.268 108.732 28 101 28H75Z" fill="#077C76" fill-opacity="0.2"/>
<path d="M61 68V69H62V68H61ZM62 122H63V121H62V122ZM115 53H114V54H115V53ZM62 42C62 34.8203 67.8203 29 75 29V27C66.7157 27 60 33.7157 60 42H62ZM62 68V42H60V68H62ZM61 67H37V69H61V67ZM37 67C32.0294 67 28 71.0294 28 76H30C30 72.134 33.134 69 37 69V67ZM28 76V114H30V76H28ZM28 114C28 118.971 32.0294 123 37 123V121C33.134 121 30 117.866 30 114H28ZM37 123H62V121H37V123ZM61 122V177H63V122H61ZM61 177C61 183.075 65.9249 188 72 188V186C67.0294 186 63 181.971 63 177H61ZM72 188H186V186H72V188ZM186 188C192.075 188 197 183.075 197 177H195C195 181.971 190.971 186 186 186V188ZM197 177V63H195V177H197ZM197 63C197 56.9249 192.075 52 186 52V54C190.971 54 195 58.0294 195 63H197ZM186 52H115V54H186V52ZM114 42V53H116V42H114ZM101 29C108.18 29 114 34.8203 114 42H116C116 33.7157 109.284 27 101 27V29ZM75 29H101V27H75V29Z" fill="#077C76" fill-opacity="0.3" mask="url(#path-2-inside-1_1160_55)"/>
<rect x="21" y="29" width="33" height="33" rx="5" fill="#077C76" fill-opacity="0.2"/>
<rect x="47" width="19" height="19" rx="5" fill="#077C76" fill-opacity="0.15"/>
<rect x="3" y="13" width="16" height="16" rx="3" fill="#077C76" fill-opacity="0.17"/>
<rect y="68" width="21" height="21" rx="3" fill="#FBED1B"/>
<path d="M102 75L101 73H119V88.5H144.5V101.5H119V149.5L134.5 142.5V154.5L109.5 169.5H106.5V80L102 75Z" fill="#077C76" stroke="#077C76" stroke-width="3"/>
<path d="M637.184 93.0433C637.184 93.7933 636.788 94.1898 636.038 94.1898H634.833V91.926H635.776C636.932 91.926 637.184 92.2798 637.184 93.0433ZM646 95C646 100.523 641.523 105 636 105C630.477 105 626 100.523 626 95C626 89.4771 630.477 85 636 85C641.523 85 646 89.4771 646 95ZM640.331 99.2102C638.447 95.7899 638.585 96.0394 638.529 95.9449C639.473 95.3331 640.059 94.2119 640.059 92.9415C640.059 90.7542 638.788 89.3426 635.805 89.3426H632.955C632.421 89.3426 631.987 89.7758 631.987 90.3103V99.6774C631.987 100.212 632.421 100.645 632.955 100.645H633.865C634.4 100.645 634.833 100.212 634.833 99.6774V96.7878H635.863L637.643 100.132C637.725 100.287 637.848 100.417 637.999 100.507C638.149 100.597 638.322 100.645 638.497 100.645H639.484C640.22 100.645 640.686 99.8552 640.331 99.2102Z" fill="#232424" fill-opacity="0.76"/>
</svg>
