<svg width="196" height="187" viewBox="0 0 196 187" fill="none" xmlns="http://www.w3.org/2000/svg">
<mask id="path-1-inside-1_1160_50" fill="white">
<path fill-rule="evenodd" clip-rule="evenodd" d="M75 28C67.268 28 61 34.268 61 42V68H37C32.5817 68 29 71.5817 29 76V114C29 118.418 32.5817 122 37 122H62V177C62 182.523 66.4772 187 72 187H186C191.523 187 196 182.523 196 177V63C196 57.4772 191.523 53 186 53H115V42C115 34.268 108.732 28 101 28H75Z"/>
</mask>
<path fill-rule="evenodd" clip-rule="evenodd" d="M75 28C67.268 28 61 34.268 61 42V68H37C32.5817 68 29 71.5817 29 76V114C29 118.418 32.5817 122 37 122H62V177C62 182.523 66.4772 187 72 187H186C191.523 187 196 182.523 196 177V63C196 57.4772 191.523 53 186 53H115V42C115 34.268 108.732 28 101 28H75Z" fill="#077C76" fill-opacity="0.2"/>
<path d="M61 68V69H62V68H61ZM62 122H63V121H62V122ZM115 53H114V54H115V53ZM62 42C62 34.8203 67.8203 29 75 29V27C66.7157 27 60 33.7157 60 42H62ZM62 68V42H60V68H62ZM61 67H37V69H61V67ZM37 67C32.0294 67 28 71.0294 28 76H30C30 72.134 33.134 69 37 69V67ZM28 76V114H30V76H28ZM28 114C28 118.971 32.0294 123 37 123V121C33.134 121 30 117.866 30 114H28ZM37 123H62V121H37V123ZM61 122V177H63V122H61ZM61 177C61 183.075 65.9249 188 72 188V186C67.0294 186 63 181.971 63 177H61ZM72 188H186V186H72V188ZM186 188C192.075 188 197 183.075 197 177H195C195 181.971 190.971 186 186 186V188ZM197 177V63H195V177H197ZM197 63C197 56.9249 192.075 52 186 52V54C190.971 54 195 58.0294 195 63H197ZM186 52H115V54H186V52ZM114 42V53H116V42H114ZM101 29C108.18 29 114 34.8203 114 42H116C116 33.7157 109.284 27 101 27V29ZM75 29H101V27H75V29Z" fill="#077C76" fill-opacity="0.3" mask="url(#path-1-inside-1_1160_50)"/>
<rect x="21" y="29" width="33" height="33" rx="5" fill="#077C76" fill-opacity="0.2"/>
<rect x="47" width="19" height="19" rx="5" fill="#077C76" fill-opacity="0.15"/>
<rect x="3" y="13" width="16" height="16" rx="3" fill="#077C76" fill-opacity="0.17"/>
<rect y="68" width="21" height="21" rx="3" fill="#FBED1B"/>
<path d="M102 75L101 73H119V88.5H144.5V101.5H119V149.5L134.5 142.5V154.5L109.5 169.5H106.5V80L102 75Z" fill="#077C76" stroke="#077C76" stroke-width="3"/>
</svg>
